<svg width="12" height="12" viewBox="0 0 12 12" fill="none" xmlns="http://www.w3.org/2000/svg">
<g clip-path="url(#clip0_1968_3010)">
<path d="M11.3678 7.94012L8.59874 6.75336C8.27319 6.6133 7.9041 6.64737 7.61073 6.84422L6.17603 7.80195C5.33186 7.37797 4.63722 6.68712 4.20946 5.84485L5.16341 4.38743C5.35457 4.09406 5.38675 3.72876 5.24858 3.40699L4.05994 0.634122C3.87823 0.208254 3.43344 -0.0472661 2.97539 0.00762353C2.15394 0.113617 1.39874 0.514879 0.849842 1.1357C0.302839 1.75841 0 2.55715 0 3.38807C0 8.13696 3.86309 12.0001 8.61199 12.0001C9.44101 12.0001 10.2397 11.6972 10.8625 11.1483C11.4852 10.6013 11.8864 9.84611 11.9924 9.02087C12.0473 8.56472 11.7899 8.11993 11.3697 7.94012H11.3678ZM3.04543 1.14516L4.18486 3.80447L3.22902 5.26567C3.14574 5.39248 3.09085 5.54012 3.07003 5.69154V5.70289L3.06625 5.86188L3.15331 6.26693L3.16278 6.28775C3.70789 7.39879 4.62208 8.3092 5.73691 8.85053C6.06625 9.00573 6.45804 8.97734 6.75899 8.77482L8.19748 7.81519L10.8549 8.95463C10.7697 9.47324 10.5085 9.94832 10.1129 10.2966C9.69842 10.6619 9.16467 10.8625 8.61199 10.8644C4.48959 10.8644 1.13565 7.51046 1.13565 3.38807C1.13565 2.83538 1.33817 2.30163 1.70347 1.88712C2.05174 1.49154 2.52681 1.23034 3.04543 1.14516Z" fill="white"/>
</g>
<defs>
<clipPath id="clip0_1968_3010">
<rect width="12" height="12" fill="white"/>
</clipPath>
</defs>
</svg>
