<?xml version="1.0" encoding="UTF-8"?>
<svg id="Layer_1" xmlns="http://www.w3.org/2000/svg" version="1.1" viewBox="0 0 60 60">
  <!-- Generator: Adobe Illustrator 29.8.1, SVG Export Plug-In . SVG Version: 2.1.1 Build 2)  -->
  <circle cx="27.7" cy="32.9" r="3.7" fill="#0c6a67"/>
  <path d="M34.5,29.3c.5,1.1.9,2.3.9,3.5,0,4.2-3.4,7.7-7.7,7.7s-7.7-3.4-7.7-7.7,3.4-7.7,7.7-7.7,1.7.2,2.5.4l1.4-1.5c-1.2-.6-2.5-.9-4-.9-5.3,0-9.6,4.3-9.6,9.6s4.3,9.6,9.6,9.6,9.6-4.3,9.6-9.6-.5-3.5-1.4-4.9l-1.4,1.4Z" fill="#0c6a67"/>
  <path d="M38.8,25.1c1.6,2.2,2.5,4.9,2.5,7.8,0,7.5-6.1,13.6-13.6,13.6s-13.6-6.1-13.6-13.6,6.1-13.6,13.6-13.6,4.9.7,6.9,1.9l1.4-1.5c-2.4-1.5-5.3-2.4-8.3-2.4-8.6,0-15.5,7-15.5,15.6s7,15.5,15.5,15.5,15.5-7,15.5-15.5-1.1-6.6-3.1-9.2l-1.4,1.4Z" fill="#0c6a67"/>
  <path d="M43.1,20.7c2.6,3.3,4.2,7.6,4.2,12.1,0,10.8-8.8,19.6-19.6,19.6s-19.6-8.8-19.6-19.6S16.9,13.3,27.7,13.3s8.1,1.3,11.2,3.6l1.4-1.4c-3.6-2.6-7.9-4.1-12.7-4.1-11.9,0-21.6,9.7-21.6,21.6s9.7,21.6,21.6,21.6,21.6-9.7,21.6-21.6-1.8-9.9-4.8-13.6l-1.4,1.4Z" fill="#0c6a67"/>
  <path d="M48.4,15.4l-1.4,1.4c3.6,4.4,5.8,10,5.8,16.1,0,13.9-11.3,25.1-25.1,25.1S2.6,46.7,2.6,32.9,13.9,7.7,27.7,7.7s11,1.9,15.2,5.1l1.4-1.4c-4.6-3.6-10.4-5.7-16.6-5.7C12.8,5.7.6,17.9.6,32.9s12.2,27.1,27.1,27.1,27.1-12.2,27.1-27.1-2.4-12.8-6.4-17.5Z" fill="#0c6a67"/>
  <polygon points="55.5 4.2 54.3 0 46.2 7.7 46.6 11.5 30.1 28 27.7 30.4 29.8 32.5 32.4 29.9 48.3 13.6 51.9 13.8 60 6.2 55.5 4.2" fill="#0c6a67"/>
</svg>