<?xml version="1.0" encoding="UTF-8"?>
<svg id="Layer_1" xmlns="http://www.w3.org/2000/svg" version="1.1" viewBox="0 0 60 60">
  <!-- Generator: Adobe Illustrator 29.8.1, SVG Export Plug-In . SVG Version: 2.1.1 Build 2)  -->
  <path d="M36.7,42.3h-18.1c.7-5.2-3.4-7.3-6.1-10.6C1.4,17.6,13.7-2.4,31.2.7c14.1,2.5,20.3,19.7,11.5,30.9-2.6,3.3-6.8,5.6-6.1,10.6ZM33.8,39.5c1.2-6.3,6.9-8.1,9-14,5.4-14.8-10.4-27.8-23.8-19.8-8,4.7-10.1,15.2-5.2,23,1.3,2,3,3,4.4,4.6s2.4,4,3,6.2h12.5Z" fill="#0c6a67"/>
  <path d="M35.8,54.3c-2.3,7.6-14.3,7.6-16.5,0h16.5Z" fill="#0c6a67"/>
  <rect x="16.2" y="44.1" width="22.6" height="3.4" rx="1.7" ry="1.7" fill="#0c6a67"/>
  <rect x="16.2" y="49.2" width="22.6" height="3.4" rx="1.7" ry="1.7" fill="#0c6a67"/>
  <path d="M19.3,54.3h16.5c0,3.1-2.6,5.7-5.7,5.7h-5.1c-3.1,0-5.7-2.6-5.7-5.7h0Z" fill="#0c6a67"/>
</svg>