<?xml version="1.0" encoding="UTF-8"?>
<svg id="Layer_1" xmlns="http://www.w3.org/2000/svg" version="1.1" viewBox="0 0 60 60">
  <!-- Generator: Adobe Illustrator 29.8.1, SVG Export Plug-In . SVG Version: 2.1.1 Build 2)  -->
  <rect x="0" width="60" height="60" rx="5.8" ry="5.8" fill="#e6fffe"/>
  <g>
    <path d="M37,29.4c0-.1-.1-.2-.2-.3l-4.4-2.3v-.5c0-1.3,0-2.7-.6-3.9-.3-.7-.9-1.1-1.5-1.1s0,0,0,0c-.7,0-1.3.6-1.6,1.5-.5,1.2-.4,2.7-.4,4.1l-4.4,2.2h0c-.1.2-.2.3-.2.5,0,.1,0,1.2,0,1.4,0,.3.4.5.7.5h0s4.1-.9,4.1-.9l.2,2.6c-.2,0-.4.2-.5.3-.3.1-.6.3-.8.5-.2.1-.3.2-.4.5,0,.2-.2,1.5-.1,1.7,0,.3.4.5.7.5s0,0,.1,0l2.2-.6h.4c0-.1,2.9.6,2.9.6.4,0,.7-.2.8-.6,0-.2,0-1.4-.1-1.6,0-.2-.2-.4-.4-.5l-1.4-.7.2-2.6,4.1.9h0c.7-.1.7-.6.7-.9h0c0-1,0-1.1,0-1.1ZM30.9,29.4h0c0,.5,0,1-.1,1.4h0c0,.9-.1,1.7-.2,2.5h0c0,.3,0,.6.3.9l1.1.6-1.7-.5-1.7.5c0,0,.2-.1.3-.2h0c.2-.2.5-.3.7-.4.3-.2.4-.4.4-.7,0-.7,0-1.5-.1-2.1,0-.6-.1-1.2-.1-1.8,0-.3-.4-.6-.7-.6s0,0-.1,0l-2.7.6,3.1-1.6c.2,0,.4-.3.5-.7,0-.2,0-.4,0-.6,0-.1,0-.3,0-.4,0-.9,0-2,.3-2.8,0-.3.2-.5.3-.6,0,0,0,0,0,0,.2.3.5,1,.5,2.9,0,.2,0,.4,0,.7,0,.3,0,.6,0,.9,0,.2,0,.3.2.5l3.3,1.7-2.8-.6h0c-.3,0-.6.1-.8.5ZM28.9,34.5h0s0,0,0,0c0,0,0,0,0,0Z" fill="#0c6a67"/>
    <path d="M43.5,14.9h-6v-1.8c0-.2-.2-.4-.3-.5,0,0-.3-.3-.6-.3s0,0,0,0h-2.8c-.3-1.1-1-1.9-1.9-2.4-1.1-.6-2.4-.7-3.6-.2-1.1.5-2,1.4-2.3,2.6h-2.8c-.2,0-.4.2-.5.3-.1.1-.3.3-.3.5v1.8h-6c-.2,0-.4.2-.5.4,0,0-.3.4-.3.7v31.6c0,.7.4,1.1,1,1.1h26.5c.2,0,.5-.1.7-.3,0,0,.3-.4.3-.5V15.6c0-.3-.5-.7-.8-.7ZM24.5,14.3h2.7c.1,0,.4-.2.4-.2.4-.3.4-.6.5-1,0-.1,0-.2,0-.3.2-.8.9-1.4,1.7-1.4.9,0,1.6.4,2,1.1,0,.2,0,.4.1.6,0,.4.1.7.3.9,0,0,.3.3.5.3h2.7v3.2h-11v-3.2ZM42.3,26.1v20.6h-24.5v-29.8h4.8v1.8c0,.2.2.4.3.5.1,0,.4.3.6.2h13.1c.2,0,.5-.1.7-.3,0,0,.3-.4.3-.5v-1.8h4.8v9.2Z" fill="#0c6a67"/>
    <rect x="20.5" y="39.4" width="18.8" height="1.3" rx=".7" ry=".7" fill="#0c6a67"/>
    <rect x="20.5" y="41.8" width="6.9" height="1.3" rx=".4" ry=".4" fill="#0c6a67"/>
  </g>
</svg>