<?xml version="1.0" encoding="UTF-8"?>
<svg id="Layer_1" xmlns="http://www.w3.org/2000/svg" version="1.1" viewBox="0 0 60 60">
  <!-- Generator: Adobe Illustrator 29.8.1, SVG Export Plug-In . SVG Version: 2.1.1 Build 2)  -->
  <rect width="60" height="60" rx="5.8" ry="5.8" fill="#e6fffe"/>
  <g>
    <path d="M44.6,18.4h-5.4v-2.6c0-.5-.4-1-1-1s-1,.4-1,1v2.6h-14.4v-2.6c0-.5-.4-1-1-1s-1,.4-1,1v2.6h-5.4c-1.3,0-2.4,1.1-2.4,2.4v21.9c0,1.3,1.1,2.4,2.4,2.4h29.2c1.3,0,2.4-1.1,2.4-2.4v-21.9c0-1.3-1.1-2.4-2.4-2.4ZM15,24.6h30.1v18.2c0,.2-.2.4-.4.4H15.4c-.2,0-.4-.2-.4-.4v-18.2ZM45,22.6H15v-1.8c0-.2.2-.4.4-.4h29.2c.2,0,.4.2.4.4v1.8Z" fill="#0c6a67"/>
    <g>
      <path d="M26.4,35.2c-.6-.4-1.3-.6-2-.5-.4,0-.8.2-1.1.5-.3-.2-.7-.4-1.1-.5-.7-.1-1.4,0-2,.5-.6.4-1,1.1-1.1,1.7-.1.8,0,1.6.5,2.4,1.1,1.8,2.9,2.6,3.4,2.8h.3c0,.1.3,0,.3,0,.5-.2,2.3-1,3.4-2.8h0c.5-.8.6-1.6.5-2.4-.1-.7-.5-1.3-1.1-1.7ZM25.9,37.2c0,.4,0,.8-.3,1.2-.7,1.1-1.7,1.7-2.2,2-.5-.2-1.6-.8-2.2-2-.2-.4-.4-.9-.3-1.2,0-.2.2-.5.4-.6.2-.1.4-.2.6-.2s0,0,.1,0c.3,0,.5.2.7.5l.7,1.1.7-1.1c.2-.3.4-.4.7-.5.2,0,.5,0,.7.2.2.2.4.4.4.6Z" fill="#0c6a67"/>
      <path d="M40.5,30.2c-.2-1.2-.9-2.3-2-3.1-1.1-.8-2.3-1.1-3.5-.9-.9.1-1.8.6-2.5,1.3-.7-.7-1.6-1.1-2.5-1.3-1.2-.2-2.5.1-3.5.9-1.1.8-1.8,1.9-2,3.1-.2,1.3,0,2.8.9,4.2h0c0,0,0,0,0,0,.5,0,.9.2,1.3.5.5.4.9.9,1,1.5,0,.2,0,.5,0,.8h0c0,0,0,.1,0,.1,1.8,1.6,3.6,2.4,4.3,2.7h.3c0,.1.3,0,.3,0,1-.4,4.5-1.9,6.7-5.5.9-1.4,1.2-3,1-4.4ZM29.8,27.9c.8.1,1.6.6,2,1.4l.7,1.1.7-1.1c.5-.8,1.2-1.3,2-1.4.8-.1,1.6,0,2.3.6.7.5,1.2,1.2,1.3,2,.2,1-.1,2.2-.8,3.3-1.7,2.8-4.4,4.2-5.6,4.7-1.1-.5-3.8-1.9-5.5-4.7-.7-1.1-.9-2.2-.8-3.3.1-.8.6-1.5,1.3-2,.6-.4,1.2-.6,1.9-.6s.3,0,.4,0Z" fill="#0c6a67"/>
    </g>
  </g>
</svg>