<?xml version="1.0" encoding="UTF-8"?>
<svg id="Layer_1" xmlns="http://www.w3.org/2000/svg" version="1.1" viewBox="0 0 60 60">
  <!-- Generator: Adobe Illustrator 29.8.1, SVG Export Plug-In . SVG Version: 2.1.1 Build 2)  -->
  <rect width="60" height="60" rx="5.8" ry="5.8" fill="#e6fffe"/>
  <g>
    <path d="M47.8,36c-.8-1.2-2.3-1.7-3.8-1.2-.2,0-.4.1-.5.2,0,0-.2,0-.3.1-1.2.5-2.4,1.1-3.5,1.6-1.1.5-2.3,1.1-3.5,1.6h0c-.5.3-.6.8-.4,1.3.2.4.6.7,1.2.5,1.2-.5,2.4-1.1,3.6-1.6,1.1-.5,2.2-1.1,3.4-1.5,0,0,.2,0,.3-.1.3-.1.6-.3.9-.3,0,0,0,0,0,0,.7,0,1.1.4,1.2.8.2.4.1,1-.4,1.5-1.8,1.1-3.5,2.4-5.2,3.6-1.8,1.2-3.6,2.5-5.4,3.7-2.4,1.5-3.5,1.5-6,1.3-.3,0-.7,0-1.1,0-1.1,0-2.2-.1-3.3-.2-1.6-.1-3.3-.3-4.8-.3-.6,0-1.1,0-1.7.1,0,0,0,0-.1,0v-6.5c.1,0,.2,0,.3-.1.5-.2,1.1-.5,1.6-.8.5-.3.9-.8,1.4-1.2.9-.9,1.8-1.7,3-1.7h0l7.8,1.4c.5.2.7.7.7,1,0,.3-.3.7-.8.8-.7,0-1.6,0-2.4,0-1,0-2-.1-2.8,0-.4,0-.8.3-.9.7-.1.4,0,.8.4,1.1h.1c0,0,5.9.1,5.9.1,1.6-.2,2.4-1.5,2.5-2.6,0-1.1-.5-2.5-2.1-3h0c-.9,0-2-.3-3.2-.6-2.5-.6-5.3-1.2-7.1-.3-.8.4-1.4,1-2.1,1.6-.7.7-1.4,1.3-2.2,1.7-.3-.5-.8-.9-1.5-.9-1.2-.2-3.9-.1-5.1,0-1.4.1-1.8,1-1.8,1.8,0,1.4,0,3,0,4.5,0,1.6-.1,3.3,0,4.9,0,1,.6,1.6,1.5,1.7.4,0,.9,0,1.3,0s1.1,0,1.7,0c.9,0,1.8,0,2.6,0h0s0,0,0,0c.7-.2,1.2-.8,1.3-1.5.7-.2,1.4-.2,2.1-.2,1.6,0,3.3.2,4.9.3,1.5.1,3.1.2,4.7.3,2.1,0,3.5,0,5.6-1.2,2.2-1.3,4.4-2.9,6.6-4.5,1.7-1.2,3.5-2.5,5.2-3.6h0c1-1.3,1.1-2.8.3-4.1ZM16.3,39.5v9.1h-4.7v-9.1h4.7Z" fill="#0c6a67"/>
    <path d="M30.5,24.6c.6.2,1.3.3,1.9.3,2.2,0,4.3-1.1,5.5-3.1,1.6-2.5,1.4-5.6-.6-7.9-1.2-1.3-2.9-2.2-4.7-2.3-1.8,0-3.6.6-4.9,1.8-1.7,1.7-2.4,4.1-1.8,6.4.6,2.3,2.3,4.1,4.5,4.7ZM27.7,17.8c.2-2,2-3.9,3.9-4.2,2.3-.3,4.3.8,5.1,2.8.8,1.9.3,4.1-1.4,5.4-1.5,1.2-3.4,1.4-5.1.5-1.7-.9-2.7-2.7-2.5-4.6Z" fill="#0c6a67"/>
    <path d="M23.2,34c.5,0,.9-.2,1-.6.1-.4,0-1,0-1.6,0-.4,0-.9,0-1.2.2-2.1,2.2-3.7,4.3-3.6l3.1,3.2c.3.3.7.4,1.2.3h0s3.3-3.5,3.3-3.5c2.3,0,4.2,1.5,4.4,3.8,0,.3,0,.7,0,1,0,.4,0,.8,0,1.2,0,.7.5,1,1,1.1h0c.4,0,.9-.3,1-1,.3-2.9-.5-6.5-4-7.7-.7-.2-2.3-.5-3.1-.3-.2,0-.4.2-.5.4h0c-.5.5-.9,1-1.4,1.5-.3.3-.6.7-.9,1h0c0,0,0,.1,0,.1-.3-.3-.6-.6-.9-.9-.5-.5-1-1.1-1.5-1.6,0,0,0,0-.1-.1-.1-.1-.3-.4-.7-.4-3.1-.5-6.2,1.7-6.8,4.8-.2.8-.2,2.3-.1,3.1,0,.5.4.9.9.9Z" fill="#0c6a67"/>
    <path d="M14,48.2c0,0,.2,0,.3,0,.5,0,.8-.4,1-.8.1-.4,0-.9-.3-1.3-.3-.4-.8-.5-1.3-.4-.7.2-1,.9-.8,1.5.1.5.5,1,1.2,1Z" fill="#0c6a67"/>
  </g>
</svg>