<?xml version="1.0" encoding="UTF-8"?>
<svg id="Layer_1" xmlns="http://www.w3.org/2000/svg" version="1.1" viewBox="0 0 60 60">
  <!-- Generator: Adobe Illustrator 29.8.1, SVG Export Plug-In . SVG Version: 2.1.1 Build 2)  -->
  <circle cx="30" cy="30" r="30" fill="#e6fffe"/>
  <path d="M28.8,15c11.9-.9,20.2,11.9,14.3,22.4-5.3,9.4-18.8,10.3-25.2,1.7s-.9-23.2,10.9-24.1ZM20.5,39.2c6.5,6.7,18,4.6,21.7-4,4.3-10.3-5.4-20.9-16.1-17.7s-12.3,14.8-5.6,21.7Z" fill="#0c6a67"/>
  <path d="M35.3,33.9c.9,1-.6,2.2-1.4,2.7-2.5,1.5-5.4,1.3-7.9-.2s-2.1-1.3-1.4-2.3,2.7.7,3.8,1,2.5.4,3.8-.2,2-2.1,3-1Z" fill="#0c6a67"/>
  <path d="M24.4,25.2c2.6-.4,2.9,3.8.4,4s-3-3.6-.4-4Z" fill="#0c6a67"/>
  <path d="M34.9,25.2c2.7-.4,3.2,3.9.4,4s-2.7-3.6-.4-4Z" fill="#0c6a67"/>
</svg>