<?xml version="1.0" encoding="UTF-8"?>
<svg id="Layer_1" xmlns="http://www.w3.org/2000/svg" version="1.1" viewBox="0 0 60 60">
  <!-- Generator: Adobe Illustrator 29.8.1, SVG Export Plug-In . SVG Version: 2.1.1 Build 2)  -->
  <circle cx="30" cy="30" r="30" fill="#e6fffe"/>
  <g>
    <path d="M50.4,33.6l-4.8-5.3c0-.2.2-.5.3-.7.6-1.7,1.4-3.6,1.2-5.4,0-1.1-.6-1.8-1.3-2.1-.8-.3-1.9.1-2.7,1-1.2,1.4-1.9,3.4-2.5,5.1h0c0,.1-.9.2-.9.2v-8.6c0-.2-.4-.6-.7-.6h-4.9v-1.5c0-.2-.1-.3-.2-.4,0,0-.3-.2-.5-.2s0,0,0,0h-2.3c-.3-.9-.8-1.6-1.5-2-.9-.5-2-.6-2.9-.2-.9.4-1.6,1.2-1.9,2.2h-2.3c-.2,0-.3.2-.4.2,0,0-.2.2-.2.4v1.5h-5c-.2,0-.4.2-.4.3,0,0-.3.3-.2.6v26c0,.6.3.9.9.9h21.8c.2,0,.4,0,.6-.2,0,0,.2-.3.2-.4v-4.8l2.3,1.7c.4.2.9,0,1.1-.3.1-.2.5-1.8.6-2.1,0-.3,0-.5-.2-.7l-1.5-1.7h0s1.7-3.7,1.7-3.7l5.1,3.3h0c.7.2.9-.3,1.1-.8h0c.4-1.2.4-1.4.4-1.4,0-.1,0-.3-.1-.4ZM26.4,15.9c0,0,0-.2,0-.3.1-.7.7-1.1,1.4-1.2.7,0,1.4.3,1.6.9,0,.1,0,.3.1.5,0,.3,0,.6.3.8,0,0,.3.2.4.2h2.3v2.6h-9v-2.6h2.2c0,0,.3-.1.3-.1.3-.2.4-.5.4-.8ZM42.9,31h0c-.3.7-.6,1.3-.9,2-.5,1-1,2-1.4,3.1h0c-.1.4-.2.7,0,1.1l1.6,1.9v.3c0,0-2.7-1.9-2.7-1.9l-3.2-.3c0,0,0-.2.1-.2.4,0,.8-.1,1.1-.2.4,0,.8-.1,1.2-.2.4,0,.6-.3.7-.6.3-.9.6-1.9.9-2.8.2-.8.5-1.7.7-2.5,0-.4-.2-.8-.6-.9l-5.7-.8,6.7-.7c.3,0,.6-.1.8-.5.1-.2.2-.5.3-.8,0-.2.1-.4.2-.6.4-1.2,1-2.7,1.8-3.7.2-.3.7-.7.9-.8,0,0,0,0,0,0,0,0,.1.3.1.3.2.8,0,2.2-.7,4.2,0,.3-.2.6-.4.9-.2.4-.3.8-.5,1.1,0,.2,0,.4,0,.6l4.7,5.1-4.8-3.1c-.3-.2-.7,0-1,.2ZM22.2,20.9c0,0,.3.2.5.2h10.8c.2,0,.4,0,.5-.2,0,0,.2-.3.2-.4v-1.5h3.9v7.7l-4.5.5h0c-.2,0-.3.2-.4.4,0,.1-.6,1.6-.6,1.8,0,.3.2.7.5.8l6.1.9-1.2,3.9c-.3,0-.7,0-1,.1-.4,0-.9.1-1.3.2-.2,0-.4.1-.6.4-.1.2-.9,1.8-1,2.1,0,.4.2.8.7.9l3.4.3v4.7h-20.2v-24.6h3.9v1.5c0,.2.2.3.3.4Z" fill="#0c6a67"/>
    <path d="M21,23.3h0s0,0,0,0c-.4,0-.7.4-.8.8,0,.8,0,2.4,0,3.2,0,.6.3.8.8.9.2,0,.5,0,.8,0s.7,0,1,0c.5,0,1.1,0,1.6,0,.4,0,.7-.4.8-.8,0-.6,0-1.1,0-1.7,0-.5,0-1,0-1.6,0-.5-.3-.7-.8-.8-.6,0-1.2,0-1.8,0-.5,0-1,0-1.5,0ZM21.9,26.5v-1.6h1.6v1.6h-1.6Z" fill="#0c6a67"/>
    <path d="M25.1,30.8c0-.4-.3-.8-.8-.8-.6,0-1.2,0-1.9,0-.5,0-1.1,0-1.6,0h0s0,0,0,0c-.4.1-.6.4-.6.8,0,.8,0,2.4,0,3.2,0,.5.4.8.9.9.4,0,1,0,1.7,0s1.1,0,1.5,0c.5,0,.8-.3.8-.8,0-.6,0-1.1,0-1.7,0-.5,0-1,0-1.6ZM23.4,31.6v1.6h-1.6v-1.6h1.6Z" fill="#0c6a67"/>
    <path d="M25.1,37.3h0s0,0,0,0c0-.3-.4-.6-.7-.6-.6,0-1.3,0-1.9,0-.5,0-1.1,0-1.6,0h0s0,0,0,0c-.4,0-.6.4-.7.8,0,.5,0,1,0,1.5,0,.6,0,1.2,0,1.7,0,.4.4.8.8.8.3,0,.5,0,.8,0s.7,0,1,0c.5,0,1.1,0,1.6,0h0s0,0,0,0c.4,0,.7-.4.7-.8,0-.7,0-1.4,0-2.1,0-.5,0-.9,0-1.4ZM23.4,38.3v1.6h-1.6v-1.6h1.6Z" fill="#0c6a67"/>
    <path d="M31.5,36.7c-.7,0-1.6,0-2.4,0-.7,0-1.4,0-2,0h0s0,0,0,0c-.5,0-.8.5-.8.8,0,.4.2.8.7.9h4.5c.5-.1.7-.5.7-.9,0-.3-.3-.7-.8-.8Z" fill="#0c6a67"/>
    <path d="M26.9,25h0s4.7,0,4.7,0c.3,0,.5-.3.6-.6,0-.3,0-.6-.2-.8-.1-.1-.4-.2-.6-.2-.7,0-1.6,0-2.3,0-.7,0-1.4,0-2.1,0-.4,0-.7.4-.7.8,0,.4.2.7.6.8Z" fill="#0c6a67"/>
    <path d="M27,31.7h0s4.6,0,4.6,0c.5,0,.7-.5.7-.8,0-.3-.2-.7-.7-.8h0s0,0,0,0c-.7,0-1.4,0-2.1,0-.8,0-1.6,0-2.4,0-.2,0-.4,0-.5.2h0c-.2.2-.3.5-.2.8,0,.3.3.5.6.6Z" fill="#0c6a67"/>
    <path d="M27,34.8h3.7c.5,0,.7-.5.7-.8,0-.3-.3-.7-.8-.8-.5,0-1,0-1.5,0-.7,0-1.3,0-2,0s-.8.4-.8.8c0,.3.2.7.7.9Z" fill="#0c6a67"/>
    <path d="M30.8,39.8h-3.7s0,0,0,0c-.5.1-.7.5-.7.9,0,.3.3.7.8.8.5,0,1,0,1.6,0,.4,0,.7,0,1.1,0s.6,0,.9,0c.5,0,.8-.4.8-.8,0-.3-.2-.7-.7-.9Z" fill="#0c6a67"/>
    <path d="M27.1,28.1c.5,0,1.1,0,1.7,0,.4,0,.7,0,1.1,0s.6,0,.9,0c.5,0,.7-.4.7-.8,0-.4-.3-.8-.7-.8h-3.7s0,0,0,0c-.3,0-.5.3-.6.6,0,.3,0,.6.2.8.1.1.3.2.5.2Z" fill="#0c6a67"/>
  </g>
</svg>