<?xml version="1.0" encoding="UTF-8"?>
<svg id="Layer_1" xmlns="http://www.w3.org/2000/svg" version="1.1" viewBox="0 0 60 60">
  <!-- Generator: Adobe Illustrator 29.8.1, SVG Export Plug-In . SVG Version: 2.1.1 Build 2)  -->
  <circle cx="30" cy="30" r="30" fill="#e6fffe"/>
  <path d="M42.3,30.9c.8-1.6.4-3.5-1-4.5-1.3-1-2.7-1-4.1-.9h0c-.2,0-.4,0-.5,0,1.1-1.7,2.9-4.7.4-7.5-.9-1-2.1-1.3-3.2-.6-1,.6-1.1,1.5-1.3,2.3,0,.3-.1.6-.2.9-.4,1.2-1.4,2.2-2,2.7l-.2.2c-.5.4-.7.7-1.2,1.4-.2.4-.4.7-.5,1.1-.3.7-.6,1.3-1.2,1.9,0,0,0,.1-.1.1,0,0,0,0,0,0,0,0-.1,0-.2,0-.3-.7-.8-1-1.3-1.1h-5.7c-1,.1-1.7.9-1.8,2v10.3c0,.9.9,1.7,1.9,1.7h18.5c.9,0,1.7-.4,2.2-1,.5-.6.8-1.4.7-2.3.6-.9.9-2.1.6-3.2.7-1,.9-2.3.5-3.5ZM40.3,30.7v.3c0,0,0,0,0,0,0,.1.1.3.2.4,0,0,0,.1,0,.2.3.8,0,1.7-.6,2.2l-.3.3.2.4c.2.4.3.8.2,1.5,0,.5-.3.8-.5,1l-.2.2v.3c.1.5.1,1,0,1.3-.2.4-.6.5-1.3.6h-11.8s0-9.4,0-9.4h1.3c.3,0,.5-.3.9-.7.8-.8,1.1-1.6,1.5-2.4.1-.3.3-.5.4-.8.3-.6.5-.8,1-1.2l.3-.3c1-.9,2.1-2.3,2.5-3.9,0-.2,0-.4.1-.5.1-.8.3-1.2.7-1.3.4,0,.5,0,.9.5,1.5,1.9.3,3.8-.9,5.8-.5.8-.6,1.5-.1,2.1v.2c.1,0,.4,0,.4,0,.8,0,1.6,0,2.3,0,.5,0,1,0,1.4,0,.6,0,2.3.4,2.2,2.2,0,.4-.2.7-.5,1.1l-.2.2ZM24.4,28.8v10.5c-.8,0-1.6,0-2.4,0h-.3c-.5,0-1.1,0-1.6,0-.2,0-.4,0-.4-.1v-10.1c0,0,0-.2.1-.2,0,0,0,0,0,0h4.5Z" fill="#0c6a67"/>
</svg>