<?xml version="1.0" encoding="UTF-8"?>
<svg id="Layer_1" xmlns="http://www.w3.org/2000/svg" xmlns:xlink="http://www.w3.org/1999/xlink" version="1.1" viewBox="0 0 28 28">
  <!-- Generator: Adobe Illustrator 29.8.1, SVG Export Plug-In . SVG Version: 2.1.1 Build 2)  -->
  <defs>
    <linearGradient id="linear-gradient" x1="1.9" y1="26" x2="25.9" y2="2.1" gradientUnits="userSpaceOnUse">
      <stop offset="0" stop-color="#23b33a"/>
      <stop offset="1" stop-color="#54d061"/>
    </linearGradient>
    <filter id="drop-shadow-1" x="-10.4" y="-10.5" width="50.9" height="50.9" filterUnits="userSpaceOnUse">
      <feOffset dx="1" dy="1"/>
      <feGaussianBlur result="blur" stdDeviation="5"/>
      <feFlood flood-color="#231f20" flood-opacity=".2"/>
      <feComposite in2="blur" operator="in"/>
      <feComposite in="SourceGraphic"/>
    </filter>
  </defs>
  <rect width="28" height="28" rx="5.4" ry="5.4" fill="url(#linear-gradient)"/>
  <g filter="url(#drop-shadow-1)">
    <path d="M13.7,3.7c-5.3.2-9.7,4.5-10,9.8s.3,3.7,1.1,5.3l-1.2,5.2c0,.2.2.4.4.4l5.2-1.2h0c1.6.8,3.3,1.2,5.2,1.1,5.3-.2,9.6-4.6,9.8-9.9S19.6,3.5,13.7,3.7ZM14,22.2c-1.5,0-2.9-.4-4.1-1.1-.1,0-.2-.1-.3-.2l-3.3.9.9-3.3c-.8-1.3-1.3-2.8-1.3-4.4,0-4.5,3.7-8.2,8.2-8.2s8.2,3.7,8.2,8.2c0,4.5-3.7,8.2-8.2,8.2Z" fill="#fff"/>
    <path d="M18.8,17.6c-.1.2-.3.4-.5.7-.5.5-1.3.8-2,.7-1.3-.1-3.2-.9-4.8-2.5-1.6-1.6-2.3-3.5-2.5-4.8,0-.7.2-1.5.7-2,.2-.2.4-.4.7-.5.4-.3.9,0,1.1.4l.5,1.6c.1.4,0,.7-.1.9l-.4.4c-.2.2-.2.5,0,.8.2.4.7,1,1.5,1.8.8.8,1.4,1.3,1.8,1.5.3.2.6.1.8,0l.4-.4c.2-.2.5-.3.9-.1l1.6.5c.4.1.6.7.4,1.1Z" fill="#fff"/>
  </g>
</svg>