<?xml version="1.0" encoding="UTF-8"?>
<svg id="Layer_1" xmlns="http://www.w3.org/2000/svg" xmlns:xlink="http://www.w3.org/1999/xlink" version="1.1" viewBox="0 0 26 26">
  <!-- Generator: Adobe Illustrator 29.8.1, SVG Export Plug-In . SVG Version: 2.1.1 Build 2)  -->
  <defs>
    <linearGradient id="linear-gradient" x1="1.8" y1="24.9" x2="21.6" y2="3.9" gradientUnits="userSpaceOnUse">
      <stop offset="0" stop-color="#23b33a"/>
      <stop offset="1" stop-color="#54d061"/>
    </linearGradient>
    <linearGradient id="linear-gradient1" x1=".6" y1="25.3" x2="21.8" y2="4.3" xlink:href="#linear-gradient"/>
  </defs>
  <path d="M12.6,0C5.9.2.4,5.6,0,12.3s.4,4.7,1.4,6.7L0,25.5c0,.3.2.6.5.5l6.5-1.5h0c2,1,4.2,1.6,6.6,1.4,6.7-.3,12.1-5.8,12.4-12.5S20.1-.2,12.6,0ZM13,23.3c-1.9,0-3.7-.5-5.2-1.4-.1,0-.3-.2-.4-.3l-4.2,1.1,1.1-4.2c-1-1.6-1.7-3.5-1.7-5.6,0-5.7,4.6-10.3,10.3-10.3,5.7,0,10.3,4.6,10.3,10.3s-4.6,10.3-10.3,10.3Z" fill="url(#linear-gradient)"/>
  <path d="M19.1,17.5c-.2.3-.4.5-.7.8-.7.7-1.6,1-2.5.9-1.7-.2-4-1.1-6.1-3.1-2-2-3-4.4-3.1-6.1,0-.9.2-1.8.9-2.5.3-.3.6-.5.8-.7.5-.3,1.2-.1,1.4.5l.7,2c.2.6.1.9-.1,1.2l-.5.5c-.3.3-.3.7-.1,1,.3.5.9,1.2,1.9,2.3,1,1,1.8,1.6,2.3,1.9.3.2.7.2,1-.1l.5-.5c.2-.2.6-.3,1.2-.1l2,.7c.6.2.8.9.4,1.4Z" fill="url(#linear-gradient1)"/>
</svg>